{"asset":{"version":"2.0","generator":"Blockbench 4.10.0 glTF exporter"},"scenes":[{"nodes":[10],"name":"blockbench_export"}],"scene":0,"nodes":[{"name":"screen","mesh":0},{"translation":[0.16062500000000002,-0.46875,0.165625],"name":"eyes","mesh":1},{"translation":[0.024999999999999994,0,-0.18125],"name":"righteye","children":[1]},{"translation":[0.09812499999999996,-0.46875,-0.014375],"name":"eyes","mesh":2},{"translation":[0.02500000000000005,0,-0.0012499999999999994],"name":"lefteye","children":[3]},{"translation":[-0.25,0.46875,0.015625],"name":"eyes","children":[2,4]},{"name":"bone","children":[0,5]},{"translation":[0,0.3125,0.037500000000000006],"name":"base","mesh":3},{"translation":[0,-0.0625,0.037500000000000006],"name":"keyboard","mesh":4},{"translation":[0,0.0625,-0.037500000000000006],"name":"bone2","children":[7,8]},{"children":[6,9]}],"bufferViews":[{"buffer":0,"byteOffset":0,"byteLength":5280,"target":34962,"byteStride":12},{"buffer":0,"byteOffset":5280,"byteLength":5280,"target":34962,"byteStride":12},{"buffer":0,"byteOffset":10560,"byteLength":3520,"target":34962,"byteStride":8},{"buffer":0,"byteOffset":14080,"byteLength":1320,"target":34963},{"buffer":0,"byteOffset":15400,"byteLength":48,"target":34962,"byteStride":12},{"buffer":0,"byteOffset":15448,"byteLength":48,"target":34962,"byteStride":12},{"buffer":0,"byteOffset":15496,"byteLength":32,"target":34962,"byteStride":8},{"buffer":0,"byteOffset":15528,"byteLength":12,"target":34963},{"buffer":0,"byteOffset":15540,"byteLength":48,"target":34962,"byteStride":12},{"buffer":0,"byteOffset":15588,"byteLength":48,"target":34962,"byteStride":12},{"buffer":0,"byteOffset":15636,"byteLength":32,"target":34962,"byteStride":8},{"buffer":0,"byteOffset":15668,"byteLength":12,"target":34963},{"buffer":0,"byteOffset":15680,"byteLength":288,"target":34962,"byteStride":12},{"buffer":0,"byteOffset":15968,"byteLength":288,"target":34962,"byteStride":12},{"buffer":0,"byteOffset":16256,"byteLength":192,"target":34962,"byteStride":8},{"buffer":0,"byteOffset":16448,"byteLength":72,"target":34963},{"buffer":0,"byteOffset":16520,"byteLength":288,"target":34962,"byteStride":12},{"buffer":0,"byteOffset":16808,"byteLength":288,"target":34962,"byteStride":12},{"buffer":0,"byteOffset":17096,"byteLength":192,"target":34962,"byteStride":8},{"buffer":0,"byteOffset":17288,"byteLength":72,"target":34963},{"buffer":0,"byteOffset":17360,"byteLength":436},{"buffer":0,"byteOffset":17796,"byteLength":1308},{"buffer":0,"byteOffset":19104,"byteLength":20},{"buffer":0,"byteOffset":19124,"byteLength":60},{"buffer":0,"byteOffset":19184,"byteLength":20},{"buffer":0,"byteOffset":19204,"byteLength":60}],"buffers":[{"byteLength":19264,"uri":"data:application/octet-stream;base64,"}],"accessors":[{"bufferView":0,"componentType":5126,"count":440,"max":[0.375,0.703125,0.296875],"min":[-0.25,0.109375,-0.359375],"type":"VEC3"},{"bufferView":1,"componentType":5126,"count":440,"max":[1,1,1],"min":[-1,-1,-1],"type":"VEC3"},{"bufferView":2,"componentType":5126,"count":440,"max":[0.953125,0.984375],"min":[0,0],"type":"VEC2"},{"bufferView":3,"componentType":5123,"count":660,"max":[439],"min":[0],"type":"SCALAR"},{"bufferView":4,"componentType":5126,"count":4,"max":[-0.15625,0.4959374964237213,-0.15012305974960327],"min":[-0.15625,0.43562498688697815,-0.18074806034564972],"type":"VEC3"},{"bufferView":5,"componentType":5126,"count":4,"max":[-1,0,0],"min":[-1,0,0],"type":"VEC3"},{"bufferView":6,"componentType":5126,"count":4,"max":[0.8752331733703613,0.7189145088195801],"min":[0.8591914772987366,0.6871710419654846],"type":"VEC2"},{"bufferView":7,"componentType":5123,"count":6,"max":[3],"min":[0],"type":"SCALAR"},{"bufferView":8,"componentType":5126,"count":4,"max":[-0.09375,0.4959374964237213,0.02862694300711155],"min":[-0.09375,0.43562498688697815,-0.0016855569556355476],"type":"VEC3"},{"bufferView":9,"componentType":5126,"count":4,"max":[-1,0,0],"min":[-1,0,0],"type":"VEC3"},{"bufferView":10,"componentType":5126,"count":4,"max":[0.9688640832901001,0.7189145088195801],"min":[0.9529861211776733,0.6871710419654846],"type":"VEC2"},{"bufferView":11,"componentType":5123,"count":6,"max":[3],"min":[0],"type":"SCALAR"},{"bufferView":12,"componentType":5126,"count":24,"max":[0.40625,-0.25,0.3125],"min":[-0.3125,-0.375,-0.375],"type":"VEC3"},{"bufferView":13,"componentType":5126,"count":24,"max":[1,0.9962406158447266,1],"min":[-1,-1,-1],"type":"VEC3"},{"bufferView":14,"componentType":5126,"count":24,"max":[0.78125,0.75],"min":[0,0],"type":"VEC2"},{"bufferView":15,"componentType":5123,"count":36,"max":[23],"min":[0],"type":"SCALAR"},{"bufferView":16,"componentType":5126,"count":24,"max":[-0.4375,0.0625,0.34375],"min":[-0.8125,0,-0.40625],"type":"VEC3"},{"bufferView":17,"componentType":5126,"count":24,"max":[1,0.9965457320213318,1],"min":[-1,-1,-1],"type":"VEC3"},{"bufferView":18,"componentType":5126,"count":24,"max":[0.59375,0.4375],"min":[0,0],"type":"VEC2"},{"bufferView":19,"componentType":5123,"count":36,"max":[23],"min":[0],"type":"SCALAR"},{"bufferView":20,"componentType":5126,"count":109,"max":[6],"min":[0],"type":"SCALAR"},{"bufferView":21,"componentType":5126,"count":109,"max":[0,0.03125,0],"min":[0,-0.015625,0],"type":"VEC3"},{"bufferView":22,"componentType":5126,"count":5,"max":[1.625],"min":[1],"type":"SCALAR"},{"bufferView":23,"componentType":5126,"count":5,"max":[1,1,2],"min":[1,0.5,1],"type":"VEC3"},{"bufferView":24,"componentType":5126,"count":5,"max":[1.625],"min":[1],"type":"SCALAR"},{"bufferView":25,"componentType":5126,"count":5,"max":[1,1,2],"min":[1,0.5,1],"type":"VEC3"}],"materials":[{"pbrMetallicRoughness":{"metallicFactor":0,"roughnessFactor":1,"baseColorTexture":{"index":0}},"alphaMode":"MASK","alphaCutoff":0.05,"doubleSided":true},{"pbrMetallicRoughness":{"metallicFactor":0,"roughnessFactor":1,"baseColorTexture":{"index":1}},"alphaMode":"MASK","alphaCutoff":0.05,"doubleSided":true},{"pbrMetallicRoughness":{"metallicFactor":0,"roughnessFactor":1,"baseColorTexture":{"index":2}},"alphaMode":"MASK","alphaCutoff":0.05,"doubleSided":true}],"textures":[{"sampler":0,"source":0,"name":"textureyesclosed.png"},{"sampler":1,"source":1,"name":"texturebase.png"},{"sampler":2,"source":2,"name":"texturekeyboard.png"}],"samplers":[{"magFilter":9728,"minFilter":9728,"wrapS":33071,"wrapT":33071},{"magFilter":9728,"minFilter":9728,"wrapS":33071,"wrapT":33071},{"magFilter":9728,"minFilter":9728,"wrapS":33071,"wrapT":33071}],"images":[{"mimeType":"image/png","uri":"data:image/png;base64,"},{"mimeType":"image/png","uri":"data:image/png;base64,"},{"mimeType":"image/png","uri":"data:image/png;base64,"}],"meshes":[{"primitives":[{"mode":4,"attributes":{"POSITION":0,"NORMAL":1,"TEXCOORD_0":2},"indices":3,"material":0}]},{"primitives":[{"mode":4,"attributes":{"POSITION":4,"NORMAL":5,"TEXCOORD_0":6},"indices":7,"material":0}]},{"primitives":[{"mode":4,"attributes":{"POSITION":8,"NORMAL":9,"TEXCOORD_0":10},"indices":11,"material":0}]},{"primitives":[{"mode":4,"attributes":{"POSITION":12,"NORMAL":13,"TEXCOORD_0":14},"indices":15,"material":1}]},{"primitives":[{"mode":4,"attributes":{"POSITION":16,"NORMAL":17,"TEXCOORD_0":18},"indices":19,"material":2}]}],"animations":[{"name":"animation","samplers":[{"input":20,"output":21,"interpolation":"LINEAR"},{"input":22,"output":23,"interpolation":"STEP"},{"input":24,"output":25,"interpolation":"STEP"}],"channels":[{"sampler":0,"target":{"node":6,"path":"translation"}},{"sampler":1,"target":{"node":2,"path":"scale"}},{"sampler":2,"target":{"node":4,"path":"scale"}}]}]}